<svg width="258" height="67" viewBox="0 0 258 67" fill="none" xmlns="http://www.w3.org/2000/svg">
    <a title="AboutMe" href="/" target="_parent"
        id="aboutme-btn">
        <g clip-path="url(#clip1_84_56)">
            <rect x="3.32202" y="26.9875" width="57.8986" height="13.257" rx="6.62852"
                fill="#A37A00" />
            <rect width="47.4023" height="13.2726" rx="6.63632"
                transform="matrix(0.707937 -0.706276 0.707937 0.706276 0 33.4791)" fill="#A37A00" />
            <rect width="47.4023" height="13.2726" rx="6.63632"
                transform="matrix(0.707937 0.706276 -0.707937 0.706276 9.39624 24.1467)"
                fill="#A37A00" />
            <path
                d="M91.1595 42.6584C91.1595 40.4184 91.6075 37.0584 92.5035 32.5784H85.3995L82.7595 46.2584H72.7275L78.8235 14.5784H88.9515L86.1675 28.7384H93.2715L95.9115 14.5784H106.039C105.591 16.9464 105.079 19.4584 104.503 22.1144L102.871 29.9384C101.655 36.0184 101.047 40.3864 101.047 43.0424C101.047 44.1304 101.223 44.9784 101.575 45.5864C99.9755 46.6744 98.2315 47.2184 96.3435 47.2184C94.4875 47.2184 93.1595 46.7704 92.3595 45.8744C91.5595 44.9784 91.1595 43.9064 91.1595 42.6584ZM117.657 47.2184C110.617 47.2184 107.097 43.9064 107.097 37.2824C107.097 32.5784 108.393 28.7064 110.985 25.6664C113.737 22.4344 117.497 20.8184 122.265 20.8184C125.721 20.8184 128.329 21.6184 130.089 23.2184C131.849 24.8184 132.729 27.2984 132.729 30.6584C132.729 35.7784 131.353 39.8264 128.601 42.8024C125.913 45.7464 122.265 47.2184 117.657 47.2184ZM118.905 26.3384C118.521 27.2024 118.169 28.2904 117.849 29.6024C117.561 30.8824 117.225 32.5464 116.841 34.5944C116.457 36.6424 116.265 38.9304 116.265 41.4584C116.265 42.2904 116.393 42.9784 116.649 43.5224C116.937 44.0664 117.449 44.3384 118.185 44.3384C118.921 44.3384 119.513 44.1624 119.961 43.8104C120.441 43.4584 120.857 42.8664 121.209 42.0344C121.849 40.5624 122.425 38.4664 122.937 35.7464C123.449 32.9944 123.721 31.0264 123.753 29.8424C123.817 28.6584 123.849 27.6344 123.849 26.7704C123.849 25.8744 123.721 25.1384 123.465 24.5624C123.209 23.9864 122.713 23.6984 121.977 23.6984C121.273 23.6984 120.681 23.9224 120.201 24.3704C119.721 24.8184 119.289 25.4744 118.905 26.3384ZM170.112 47.2184C166.24 47.2184 164.304 45.7144 164.304 42.7064C164.304 41.3944 164.576 39.4744 165.12 36.9464C165.696 34.3864 166.08 32.5944 166.272 31.5704C166.72 29.2344 166.944 27.6984 166.944 26.9624C166.944 25.3304 166.336 24.5144 165.12 24.5144C164.32 24.5144 163.536 25.0744 162.768 26.1944C162 27.2824 161.44 28.9304 161.088 31.1384L158.112 46.2584L148.752 47.2184L151.344 34.1624C151.632 32.7224 151.904 31.1864 152.16 29.5544C152.416 27.9224 152.544 26.9784 152.544 26.7224C152.544 25.2504 152 24.5144 150.912 24.5144C150.176 24.5144 149.408 25.0584 148.608 26.1464C147.808 27.2344 147.184 28.8984 146.736 31.1384L143.808 46.2584L134.352 47.2184L139.392 21.7784L147.216 20.8184L146.4 25.6664C147.232 23.9384 148.416 22.7064 149.952 21.9704C151.488 21.2024 153.456 20.8184 155.856 20.8184C157.232 20.8184 158.368 21.1544 159.264 21.8264C160.16 22.4984 160.752 23.3784 161.04 24.4664C161.584 23.3464 162.544 22.4664 163.92 21.8264C165.328 21.1544 166.88 20.8184 168.576 20.8184C170.304 20.8184 171.584 21.0104 172.416 21.3944C173.28 21.7464 173.968 22.2264 174.48 22.8344C175.344 23.9544 175.776 25.5384 175.776 27.5864C175.776 29.6024 175.344 32.7064 174.48 36.8984C174.032 38.9464 173.808 40.3544 173.808 41.1224C173.808 41.8584 174.016 42.4504 174.432 42.8984C174.88 43.3464 175.424 43.6024 176.064 43.6664C175.744 44.7544 175.024 45.6184 173.904 46.2584C172.816 46.8984 171.552 47.2184 170.112 47.2184ZM199.195 38.1464C199.995 38.6904 200.395 39.5704 200.395 40.7864C200.395 41.9704 200.091 42.9464 199.483 43.7144C198.875 44.4824 198.075 45.1224 197.083 45.6344C195.035 46.6904 192.907 47.2184 190.699 47.2184C188.491 47.2184 186.731 46.9784 185.419 46.4984C184.139 46.0184 183.067 45.3304 182.203 44.4344C180.507 42.7384 179.659 40.3384 179.659 37.2344C179.659 32.4024 180.971 28.5144 183.595 25.5704C186.411 22.4024 190.267 20.8184 195.163 20.8184C198.203 20.8184 200.475 21.4584 201.979 22.7384C203.099 23.6984 203.659 24.9624 203.659 26.5304C203.659 32.1624 198.795 34.9784 189.067 34.9784C188.939 35.8104 188.875 36.5784 188.875 37.2824C188.875 38.7544 189.195 39.7784 189.835 40.3544C190.507 40.8984 191.451 41.1704 192.667 41.1704C193.883 41.1704 195.131 40.8984 196.411 40.3544C197.723 39.7784 198.651 39.0424 199.195 38.1464ZM189.403 32.9144C191.675 32.9144 193.467 32.2104 194.779 30.8024C196.091 29.4584 196.747 27.7144 196.747 25.5704C196.747 24.8344 196.603 24.2744 196.315 23.8904C196.059 23.4744 195.659 23.2664 195.115 23.2664C194.571 23.2664 194.059 23.3784 193.579 23.6024C193.131 23.7944 192.667 24.2424 192.187 24.9464C191.003 26.5464 190.075 29.2024 189.403 32.9144Z"
                fill="#755800" />
        </g>
    </a>
</svg>