<svg width="74" height="74" viewBox="0 0 74 74" fill="none" xmlns="http://www.w3.org/2000/svg">
<path d="M51.8626 28.252L51.4244 28.0127C51.6551 28.57 51.7302 29.0452 51.7221 29.4701C51.8042 29.1261 51.8586 28.7712 51.8655 28.4023C51.8707 28.8608 51.8152 29.2915 51.7077 29.6921L51.7221 29.4701C51.5955 30.0032 51.3839 30.4963 51.1012 30.9484L51.2371 30.8039C49.5721 33.5899 45.0297 34.1986 42.7895 31.3213C39.1936 26.7021 42.8635 21.7221 43.3775 16.8306C44.0198 10.7001 40.1758 4.74835 35.4092 1.18652C38.0344 5.43343 34.5755 11.0528 31.808 14.1932C29.1244 17.2393 25.8614 19.7819 22.8991 22.5477C19.7177 25.521 16.6571 28.6498 14.0428 32.1376C8.81137 39.1179 5.60798 47.8973 7.96211 56.6067C10.3139 65.311 17.8527 70.8512 26.3661 72.8099C22.0712 70.9529 18.0521 66.2348 18.0429 61.4075C18.0319 56.1431 21.3671 51.6748 25.5163 48.7385C25.0174 50.6226 24.7451 52.346 25.9805 54.0312C27.1298 55.5985 29.1417 56.3593 31.0409 55.9459C35.4803 54.9753 35.6832 50.0953 33.0522 47.2521C30.45 44.4378 27.9329 41.2564 28.9226 37.1736C29.4186 35.1271 30.6755 33.2112 32.2682 31.8399C31.0437 35.056 34.5212 38.2276 36.8117 39.8058C40.7869 42.5467 45.146 44.6187 48.8009 47.8308C52.6442 51.2071 55.4834 55.7719 54.9099 61.0676C54.2878 66.8066 49.7276 70.7986 44.6129 72.8133C55.4215 70.4268 66.5921 62.0376 66.8193 50.0491C67.0095 40.1874 60.2443 32.5972 51.8626 28.252Z" fill="#EE4323"/>
</svg>
