<svg width="74" height="74" viewBox="0 0 74 74" fill="none" xmlns="http://www.w3.org/2000/svg">
<g clip-path="url(#clip0_56_197)">
<path d="M9.86667 17.6193L9.08666 15.2792C7.86388 15.6868 7.16103 16.9671 7.47365 18.2176L9.86667 17.6193ZM21.4952 13.7431L23.7015 12.64C23.1525 11.542 21.8798 11.0149 20.7152 11.403L21.4952 13.7431ZM44.7524 60.2572L42.5462 61.3603C42.8534 61.975 43.4031 62.4338 44.0627 62.6257C44.7224 62.8176 45.4323 62.7259 46.0215 62.3726L44.7524 60.2572ZM64.1333 48.6288L65.4022 50.7438C65.973 50.4014 66.381 49.8434 66.5339 49.1955C66.6868 48.5479 66.5714 47.866 66.2142 47.3046L64.1333 48.6288ZM50.5667 27.3098L49.9683 24.9168C49.1992 25.1091 48.5693 25.6594 48.2755 26.3959C47.9818 27.1323 48.0599 27.9651 48.4856 28.6341L50.5667 27.3098ZM58.3189 25.3717L60.2922 23.8917C59.6968 23.0977 58.6835 22.738 57.721 22.9787L58.3189 25.3717ZM64.1333 33.1241L64.9133 35.4642C65.6656 35.2134 66.2512 34.6164 66.488 33.8595C66.7243 33.1027 66.5822 32.2784 66.1067 31.6441L64.1333 33.1241ZM17.6191 48.6288L15.226 49.2271C15.3927 49.8938 15.8298 50.4606 16.432 50.7911C17.0344 51.1217 17.7473 51.1863 18.3991 50.9687L17.6191 48.6288ZM10.6467 19.9594L22.2753 16.0832L20.7152 11.403L9.08666 15.2792L10.6467 19.9594ZM19.289 14.8462L33.6863 43.6408L38.0988 41.4345L23.7015 12.64L19.289 14.8462ZM33.6863 43.6408L42.5462 61.3603L46.9586 59.1541L38.0988 41.4345L33.6863 43.6408ZM46.0215 62.3726L65.4022 50.7438L62.8645 46.5137L43.4833 58.1423L46.0215 62.3726ZM66.2142 47.3046L58.0742 34.5131L53.9125 37.1617L62.0525 49.953L66.2142 47.3046ZM58.0742 34.5131L52.6475 25.9855L48.4856 28.6341L53.9125 37.1617L58.0742 34.5131ZM51.1651 29.7028L58.9173 27.7647L57.721 22.9787L49.9683 24.9168L51.1651 29.7028ZM56.3456 26.8517L62.16 34.6041L66.1067 31.6441L60.2922 23.8917L56.3456 26.8517ZM63.3534 30.784L55.2134 33.4973L56.7733 38.1775L64.9133 35.4642L63.3534 30.784ZM55.2134 33.4973L35.1125 40.1976L36.6725 44.8777L56.7733 38.1775L55.2134 33.4973ZM35.1125 40.1976L16.839 46.2887L18.3991 50.9687L36.6725 44.8777L35.1125 40.1976ZM20.0121 48.0306L12.2597 17.021L7.47365 18.2176L15.226 49.2271L20.0121 48.0306ZM12.3333 4.93333H61.6667V0H12.3333V4.93333ZM69.0667 12.3333V61.6667H74V12.3333H69.0667ZM61.6667 69.0667H12.3333V74H61.6667V69.0667ZM4.93333 61.6667V12.3333H0V61.6667H4.93333ZM12.3333 69.0667C8.24641 69.0667 4.93333 65.7534 4.93333 61.6667H0C0 68.4781 5.52183 74 12.3333 74V69.0667ZM69.0667 61.6667C69.0667 65.7534 65.7534 69.0667 61.6667 69.0667V74C68.4781 74 74 68.4781 74 61.6667H69.0667ZM61.6667 4.93333C65.7534 4.93333 69.0667 8.24641 69.0667 12.3333H74C74 5.52183 68.4781 0 61.6667 0V4.93333ZM12.3333 0C5.52183 0 0 5.52183 0 12.3333H4.93333C4.93333 8.24641 8.24641 4.93333 12.3333 4.93333V0Z" fill="#F34D39"/>
</g>
<defs>
<clipPath id="clip0_56_197">
<rect width="74" height="74" fill="white"/>
</clipPath>
</defs>
</svg>
