<svg width="78" height="78" viewBox="0 0 78 78" fill="none" xmlns="http://www.w3.org/2000/svg">
<g clip-path="url(#clip0_56_206)">
<path d="M23.8761 55.6313H21.7644C21.6897 52.0669 21.484 48.716 21.1478 45.576H21.129L17.914 55.6313H16.3062L13.1104 45.576H13.092C12.8549 48.5907 12.7056 51.9425 12.6435 55.6313H10.7188C10.8428 51.1455 11.1546 46.9401 11.6528 43.0146H14.27L17.3162 52.2852H17.3349L20.3998 43.0146H22.9041C23.4525 47.6126 23.7765 51.8184 23.8761 55.6313ZM33.034 46.3227C32.1742 50.9884 31.0399 54.3786 29.6321 56.4947C28.5352 58.1237 27.3335 58.939 26.0249 58.939C25.676 58.939 25.2455 58.8337 24.7354 58.6248V57.4998C24.9847 57.5357 25.2773 57.5561 25.6136 57.5561C26.2248 57.5561 26.7161 57.388 27.0907 57.0509C27.5388 56.6404 27.7628 56.1789 27.7628 55.6684C27.7628 55.3183 27.5881 54.6026 27.2396 53.5188L24.9223 46.3223H26.9969L28.6601 51.7046C29.0339 52.9267 29.1897 53.7799 29.1273 54.2659C30.0369 51.8368 30.6722 49.1881 31.0341 46.3219H33.034V46.3227Z" fill="#5D87A1"/>
<path d="M61.1429 55.6312H55.1445V43.0146H57.1623V54.0782H61.1429V55.6312ZM53.5743 55.9361L51.2549 54.7915C51.4606 54.6225 51.6572 54.4397 51.8343 54.2279C52.8202 53.0699 53.3119 51.3573 53.3119 49.0889C53.3119 44.9149 51.674 42.8269 48.3969 42.8269C46.79 42.8269 45.5364 43.3566 44.6399 44.4163C43.6549 45.5751 43.1632 47.2816 43.1632 49.5378C43.1632 51.7555 43.599 53.3825 44.471 54.4144C45.2687 55.3493 46.4713 55.8173 48.0794 55.8173C48.6793 55.8173 49.2297 55.7439 49.7312 55.5957L52.7508 57.3536L53.5743 55.9361ZM46.0608 53.1066C45.5499 52.2848 45.2944 50.9651 45.2944 49.1456C45.2944 45.9689 46.2595 44.3787 48.1916 44.3787C49.2016 44.3787 49.9418 44.759 50.4151 45.518C50.9252 46.3411 51.1819 47.6489 51.1819 49.4431C51.1819 52.6459 50.216 54.2475 48.2851 54.2475C47.2747 54.2479 46.5345 53.8689 46.0608 53.1066ZM42.2838 52.1342C42.2838 53.2041 41.8913 54.0819 41.107 54.7694C40.3219 55.4541 39.2691 55.7973 37.9499 55.7973C36.7159 55.7973 35.5195 55.4031 34.3615 54.6189L34.9038 53.5355C35.9002 54.0345 36.8024 54.2826 37.6124 54.2826C38.3726 54.2826 38.9668 54.1141 39.3977 53.7799C39.8282 53.4445 40.0848 52.974 40.0848 52.379C40.0848 51.6295 39.5621 50.9888 38.6032 50.4522C37.7189 49.9666 35.9504 48.9514 35.9504 48.9514C34.9919 48.2528 34.512 47.5028 34.512 46.2672C34.512 45.2446 34.8699 44.4191 35.586 43.7911C36.303 43.1607 37.228 42.8465 38.362 42.8465C39.5331 42.8465 40.5977 43.1603 41.5567 43.7813L41.0703 44.8651C40.2501 44.5167 39.4405 44.3424 38.6419 44.3424C37.9952 44.3424 37.4957 44.4979 37.1485 44.81C36.7984 45.121 36.5825 45.5188 36.5825 46.0069C36.5825 46.7528 37.1162 47.4016 38.1013 47.9488C38.9974 48.4352 40.8099 49.468 40.8099 49.468C41.7929 50.1654 42.2838 50.9084 42.2838 52.1342Z" fill="#F8981D"/>
<path d="M63.676 38.7889C62.456 38.7579 61.5113 38.8807 60.7185 39.2161C60.4895 39.3076 60.1256 39.3075 60.0937 39.5969C60.2174 39.7193 60.2317 39.9168 60.339 40.0857C60.5218 40.3905 60.8405 40.8006 61.1314 41.0144C61.4509 41.2593 61.7716 41.5017 62.1079 41.7151C62.7008 42.0819 63.3729 42.2953 63.9507 42.6609C64.2873 42.8735 64.6219 43.1486 64.959 43.3775C65.1246 43.4995 65.2307 43.6974 65.4458 43.7737V43.7272C65.338 43.5901 65.3074 43.3918 65.2018 43.2392L64.7439 42.7976C64.3016 42.2035 63.7519 41.6849 63.159 41.2589C62.671 40.9226 61.6035 40.4656 61.4056 39.9033L61.3746 39.8723C61.71 39.8409 62.1079 39.7193 62.4266 39.6258C62.9452 39.4891 63.4181 39.5201 63.9502 39.3834C64.1951 39.3222 64.4379 39.2455 64.6835 39.17V39.0325C64.4077 38.7579 64.211 38.3931 63.9209 38.1336C63.1448 37.4631 62.2895 36.8074 61.4056 36.2586C60.9323 35.9529 60.3235 35.7563 59.8195 35.4963C59.6379 35.4045 59.3319 35.3592 59.225 35.2066C58.9516 34.8712 58.7977 34.4297 58.5994 34.0326C58.1587 33.1949 57.7307 32.2653 57.3504 31.3795C57.0753 30.7853 56.908 30.192 56.5726 29.6424C55.0016 27.0512 53.2955 25.4819 50.6734 23.9414C50.1099 23.6207 49.4394 23.484 48.7233 23.3159L47.5795 23.2555C47.3355 23.1486 47.0911 22.8585 46.8781 22.7214C46.0081 22.1729 43.7683 20.9843 43.1285 22.5537C42.7163 23.5456 43.7381 24.5209 44.089 25.024C44.3481 25.3733 44.684 25.7708 44.8651 26.1674C44.9725 26.4265 45.0027 26.7015 45.11 26.9753C45.354 27.6462 45.5821 28.3925 45.9028 29.0185C46.0701 29.3376 46.2525 29.673 46.4663 29.9619C46.5888 30.1308 46.8018 30.2055 46.8483 30.4809C46.6357 30.7845 46.619 31.2428 46.4969 31.6239C45.9485 33.3463 46.1628 35.48 46.9401 36.7458C47.1833 37.1269 47.7636 37.9659 48.5397 37.6443C49.2268 37.3701 49.0746 36.5014 49.2721 35.7395C49.3174 35.5555 49.2876 35.4347 49.379 35.3139V35.3437C49.5916 35.7701 49.8063 36.181 50.0034 36.6087C50.4763 37.355 51.2998 38.1328 51.9857 38.6498C52.3509 38.9256 52.6402 39.3973 53.0976 39.5658V39.5201H53.0674C52.9748 39.3834 52.8393 39.3222 52.7177 39.2161C52.4427 38.9415 52.1383 38.6061 51.9249 38.3017C51.2859 37.4476 50.7203 36.5022 50.2184 35.5265C49.9728 35.0532 49.761 34.5358 49.5631 34.0632C49.4708 33.8808 49.4709 33.6058 49.3178 33.514C49.0885 33.849 48.7543 34.1391 48.587 34.5496C48.2969 35.2062 48.2667 36.0137 48.159 36.8535L48.099 36.8829C47.6134 36.7609 47.4445 36.2586 47.26 35.8321C46.8034 34.7492 46.7267 33.0109 47.1229 31.7614C47.229 31.4419 47.6881 30.4356 47.5048 30.1312C47.413 29.8395 47.1078 29.6734 46.9405 29.4436C46.7438 29.1547 46.5284 28.7891 46.3913 28.4684C46.0256 27.6152 45.8416 26.6697 45.4478 25.8169C45.2638 25.4194 44.9443 25.0081 44.6856 24.6421C44.3951 24.2308 44.0756 23.941 43.8458 23.4534C43.7699 23.2857 43.6634 23.0115 43.7854 22.8291C43.8152 22.7067 43.8772 22.661 43.9988 22.6304C44.1963 22.4635 44.7607 22.6757 44.9586 22.7675C45.5237 22.996 45.9963 23.2094 46.468 23.5293C46.6814 23.6823 46.9103 23.972 47.1841 24.0484H47.5048C47.9917 24.1544 48.5405 24.0777 48.9987 24.2157C49.8063 24.4752 50.5379 24.8559 51.1941 25.2668C53.1907 26.533 54.8372 28.3321 55.9487 30.4809C56.1311 30.831 56.2086 31.1518 56.3751 31.517C56.6963 32.2645 57.0933 33.0268 57.412 33.7584C57.7323 34.4746 58.0375 35.2058 58.495 35.8007C58.7231 36.1206 59.6396 36.2884 60.0505 36.4561C60.3545 36.5928 60.8278 36.7144 61.102 36.8821C61.6207 37.2016 62.1373 37.5684 62.6249 37.9198C62.8677 38.1026 63.6307 38.4837 63.676 38.7889ZM48.1267 25.5418C47.9163 25.5396 47.7065 25.5654 47.5028 25.6185V25.6492H47.5322C47.655 25.8928 47.8684 26.0617 48.0206 26.2743C48.1434 26.5187 48.25 26.7611 48.3703 27.0051L48.3997 26.9749C48.6148 26.8227 48.7217 26.5787 48.7217 26.2127C48.629 26.1049 48.6148 25.9997 48.5376 25.8928C48.4479 25.7401 48.25 25.6643 48.1267 25.5418Z" fill="#5D87A1"/>
<path d="M65.1279 55.6291H65.4438V54.0834H64.97L64.5836 55.1382L64.1637 54.0834H63.7075V55.6291H64.0058V54.4531H64.0225L64.4624 55.6291H64.6897L65.1279 54.4531V55.6291ZM62.5837 55.6291H62.9179V54.3454H63.3554V54.083H62.1279V54.3454H62.5829L62.5837 55.6291Z" fill="#F8981D"/>
</g>
<defs>
<clipPath id="clip0_56_206">
<rect width="78" height="78" fill="white"/>
</clipPath>
</defs>
</svg>
