<svg width="541" height="542" viewBox="0 0 541 542" fill="none" xmlns="http://www.w3.org/2000/svg">
    <path
        d="M162.828 114.224C168.187 104.924 178.096 99.1929 188.815 99.1929L352.209 99.1929C362.916 99.1929 372.805 104.91 378.154 114.193L459.875 256C465.225 265.283 465.223 276.721 459.869 286.01L378.172 427.776C372.813 437.076 362.904 442.807 352.185 442.807L188.791 442.807C178.084 442.807 168.195 437.09 162.846 427.807L81.1245 286C75.7751 276.717 75.7774 265.279 81.1305 255.99L162.828 114.224Z"
        fill="#755800" />
    <path
        d="M173.402 132.079C178.761 122.779 188.669 117.048 199.388 117.048L342.981 117.048C353.687 117.048 363.577 122.765 368.926 132.048L440.746 256.674C446.096 265.957 446.093 277.395 440.74 286.684L368.944 411.269C363.584 420.569 353.676 426.3 342.957 426.3L199.364 426.3C188.658 426.3 178.769 420.583 173.42 411.3L101.599 286.674C96.2499 277.391 96.2521 265.953 101.605 256.664L173.402 132.079Z"
        fill="white" />
    <path
        d="M373.147 357.565C373.737 357.442 374.085 356.83 373.88 356.264C367.632 339.017 354.397 323.792 336.13 312.87C317.486 301.722 294.644 295.68 271.144 295.68C247.645 295.68 224.802 301.722 206.158 312.87C187.891 323.792 174.656 339.017 168.408 356.264C168.203 356.83 168.551 357.442 169.141 357.565L262.969 377.155C268.361 378.281 273.927 378.281 279.319 377.155L373.147 357.565Z"
        fill="#9747FF" />
    <ellipse cx="271.144" cy="212.498" rx="59.3061" ry="59.4157" fill="#9747FF" />
</svg>