<svg width="74" height="82" viewBox="0 0 74 82" fill="none" xmlns="http://www.w3.org/2000/svg">
<g clip-path="url(#clip0_56_213)">
<path d="M33.1051 0.000554139C30.3421 0.0133926 27.7034 0.249039 25.3817 0.659867C18.5422 1.86818 17.3004 4.39729 17.3004 9.0614V15.2213H33.463V17.2746H17.3004H11.2347C6.53742 17.2746 2.42433 20.0979 1.13781 25.4689C-0.346179 31.6253 -0.412002 35.4669 1.13781 41.8952C2.2867 46.6801 5.03042 50.0895 9.72772 50.0895H15.2848V42.7052C15.2848 37.3705 19.9005 32.6648 25.3817 32.6648H41.5255C46.0193 32.6648 49.6068 28.9647 49.6067 24.4517V9.0614C49.6067 4.68125 45.9116 1.3909 41.5255 0.659867C38.749 0.197685 35.8681 -0.0122845 33.1051 0.000554139ZM24.3645 4.95482C26.034 4.95482 27.3973 6.34045 27.3973 8.04418C27.3973 9.74187 26.034 11.1147 24.3645 11.1147C22.689 11.1147 21.3316 9.74186 21.3316 8.04418C21.3316 6.34045 22.689 4.95482 24.3645 4.95482Z" fill="url(#paint0_linear_56_213)"/>
<path d="M51.6224 17.2747V24.4518C51.6224 30.0161 46.9049 34.6994 41.5255 34.6994H25.3817C20.9597 34.6994 17.3004 38.484 17.3004 42.9125V58.3028C17.3004 62.6829 21.1093 65.2593 25.3817 66.5159C30.4979 68.0203 35.404 68.2922 41.5255 66.5159C45.5945 65.3378 49.6068 62.9669 49.6068 58.3028V52.1429H33.463V50.0896H49.6068H57.6881C62.3854 50.0896 64.1358 46.8132 65.7694 41.8953C67.4568 36.8324 67.385 31.9637 65.7694 25.469C64.6085 20.7928 62.3913 17.2747 57.6881 17.2747H51.6224ZM42.5427 56.2495C44.2182 56.2495 45.5755 57.6223 45.5755 59.32C45.5755 61.0237 44.2182 62.4094 42.5427 62.4094C40.8732 62.4094 39.5099 61.0237 39.5099 59.32C39.5099 57.6223 40.8732 56.2495 42.5427 56.2495Z" fill="url(#paint1_linear_56_213)"/>
<path opacity="0.44382" d="M33.6464 81.1781C45.6085 81.1781 55.3056 79.2978 55.3056 76.9782C55.3056 74.6587 45.6085 72.7783 33.6464 72.7783C21.6843 72.7783 11.9872 74.6587 11.9872 76.9782C11.9872 79.2978 21.6843 81.1781 33.6464 81.1781Z" fill="url(#paint2_radial_56_213)"/>
</g>
<defs>
<linearGradient id="paint0_linear_56_213" x1="-2.01266e-07" y1="-1.74834e-07" x2="37.2692" y2="31.7585" gradientUnits="userSpaceOnUse">
<stop stop-color="#5A9FD4"/>
<stop offset="1" stop-color="#306998"/>
</linearGradient>
<linearGradient id="paint1_linear_56_213" x1="42.1543" y1="58.8021" x2="28.7835" y2="40.0657" gradientUnits="userSpaceOnUse">
<stop stop-color="#FFD43B"/>
<stop offset="1" stop-color="#FFE873"/>
</linearGradient>
<radialGradient id="paint2_radial_56_213" cx="0" cy="0" r="1" gradientUnits="userSpaceOnUse" gradientTransform="translate(33.6464 76.9782) rotate(-90) scale(4.19991 18.4604)">
<stop stop-color="#B8B8B8" stop-opacity="0.498039"/>
<stop offset="1" stop-color="#7F7F7F" stop-opacity="0"/>
</radialGradient>
<clipPath id="clip0_56_213">
<rect width="74" height="81.178" fill="white"/>
</clipPath>
</defs>
</svg>
